<svg width="256" height="59" viewBox="0 0 256 59" fill="none" xmlns="http://www.w3.org/2000/svg">
<path d="M98.04 30.6099C98.04 32.7375 97.8091 34.7111 97.3472 36.5308C96.8993 38.3364 96.1854 39.9321 95.2056 41.3179C94.2397 42.6896 92.973 43.8094 91.4053 44.6772L98.9009 53.3066H88.5708L83.4058 46.4199C83.3918 46.4199 83.3428 46.4199 83.2588 46.4199C83.1888 46.4199 83.1398 46.4199 83.1118 46.4199C80.5363 46.4199 78.3037 46.049 76.4141 45.3071C74.5384 44.5513 72.9917 43.4805 71.7739 42.0947C70.5562 40.695 69.6533 39.0223 69.0654 37.0767C68.4775 35.131 68.1836 32.9614 68.1836 30.5679C68.1836 27.3765 68.7085 24.605 69.7583 22.2534C70.8221 19.8879 72.4598 18.0612 74.6714 16.7734C76.883 15.4717 79.7104 14.8208 83.1538 14.8208C86.6532 14.8208 89.4946 15.4717 91.6782 16.7734C93.8758 18.0752 95.4855 19.9089 96.5073 22.2744C97.5291 24.64 98.04 27.4185 98.04 30.6099ZM76.918 30.6099C76.918 32.4575 77.1279 34.0462 77.5479 35.376C77.9678 36.7057 78.6326 37.7275 79.5425 38.4414C80.4523 39.1553 81.6421 39.5122 83.1118 39.5122C84.6375 39.5122 85.8483 39.1553 86.7441 38.4414C87.654 37.7275 88.3049 36.7057 88.6968 35.376C89.1027 34.0462 89.3057 32.4575 89.3057 30.6099C89.3057 27.8384 88.8438 25.6478 87.9199 24.0381C86.9961 22.4284 85.4074 21.6235 83.1538 21.6235C81.6561 21.6235 80.4453 21.9875 79.5215 22.7153C78.6117 23.4432 77.9468 24.479 77.5269 25.8228C77.1209 27.1665 76.918 28.7622 76.918 30.6099ZM113.64 15.3037C116.426 15.3037 118.742 15.6466 120.59 16.3325C122.438 17.0044 123.823 18.0122 124.747 19.356C125.685 20.6997 126.154 22.3724 126.154 24.374C126.154 25.6198 125.944 26.7536 125.524 27.7754C125.104 28.7972 124.502 29.714 123.718 30.5259C122.948 31.3237 122.025 32.0236 120.947 32.6255L129.891 46H120.485L113.976 34.8301H111.876V46H103.583V15.3037H113.64ZM113.514 21.5815H111.876V28.5942H113.43C114.704 28.5942 115.747 28.3143 116.559 27.7544C117.37 27.1945 117.776 26.1937 117.776 24.752C117.776 23.7581 117.44 22.9813 116.769 22.4214C116.097 21.8615 115.012 21.5815 113.514 21.5815ZM132.684 46V15.3037H141.019V46H132.684ZM162.078 21.7915C164.528 21.7915 166.529 22.4844 168.083 23.8701C169.637 25.2559 170.414 27.4744 170.414 30.5259V46H162.204V33.0244C162.204 31.4427 161.973 30.2529 161.511 29.4551C161.063 28.6432 160.335 28.2373 159.328 28.2373C157.774 28.2373 156.731 28.8742 156.199 30.1479C155.667 31.4077 155.401 33.2204 155.401 35.5859V46H147.192V22.2114H153.386L154.499 25.3608H154.813C155.317 24.605 155.919 23.9611 156.619 23.4292C157.319 22.8973 158.124 22.4914 159.034 22.2114C159.944 21.9315 160.958 21.7915 162.078 21.7915ZM184.25 13.3301V26.1797C184.25 27.1455 184.208 28.2233 184.124 29.4131C184.054 30.5889 183.942 31.6597 183.788 32.6255H183.956C184.278 32.1356 184.684 31.5197 185.174 30.7778C185.664 30.036 186.105 29.4201 186.497 28.9302L191.83 22.2114H200.984L192.732 32.3315L201.509 46H192.124L186.917 37.4756L184.25 39.5122V46H175.999V13.3301H184.25ZM215.051 21.7915C217.361 21.7915 219.355 22.1974 221.035 23.0093C222.715 23.8071 224.01 25.0109 224.919 26.6206C225.829 28.2303 226.284 30.2459 226.284 32.6675V36.3208H211.608C211.678 37.5666 212.14 38.5884 212.994 39.3862C213.861 40.1841 215.135 40.583 216.815 40.583C218.299 40.583 219.656 40.436 220.888 40.1421C222.134 39.8481 223.415 39.3932 224.73 38.7773V44.6772C223.583 45.2791 222.33 45.7201 220.972 46C219.614 46.2799 217.9 46.4199 215.828 46.4199C213.435 46.4199 211.293 45.993 209.403 45.1392C207.514 44.2853 206.023 42.9626 204.931 41.1709C203.853 39.3792 203.314 37.0767 203.314 34.2632C203.314 31.4077 203.804 29.0632 204.784 27.2295C205.764 25.3818 207.136 24.0171 208.899 23.1353C210.663 22.2394 212.714 21.7915 215.051 21.7915ZM215.345 27.3765C214.379 27.3765 213.568 27.6844 212.91 28.3003C212.266 28.9022 211.888 29.854 211.776 31.1558H218.831C218.817 30.4559 218.677 29.819 218.411 29.2451C218.145 28.6712 217.753 28.2163 217.235 27.8804C216.731 27.5444 216.101 27.3765 215.345 27.3765ZM238.315 46.4199C235.865 46.4199 233.85 45.3771 232.268 43.2915C230.686 41.2059 229.896 38.1545 229.896 34.1372C229.896 30.078 230.707 27.0055 232.331 24.9199C233.955 22.8343 236.054 21.7915 238.63 21.7915C239.694 21.7915 240.611 21.9455 241.38 22.2534C242.15 22.5614 242.815 22.9813 243.375 23.5132C243.949 24.0311 244.446 24.619 244.866 25.2769H245.034C244.936 24.675 244.845 23.8491 244.761 22.7993C244.677 21.7355 244.635 20.6997 244.635 19.6919V13.3301H252.907V46H246.713L244.95 42.9976H244.635C244.257 43.6274 243.781 44.2013 243.207 44.7192C242.647 45.2371 241.961 45.6501 241.149 45.958C240.352 46.266 239.407 46.4199 238.315 46.4199ZM241.674 39.9321C242.99 39.9321 243.914 39.5192 244.446 38.6934C244.992 37.8535 245.286 36.5798 245.328 34.8721V34.2212C245.328 32.3455 245.062 30.9108 244.53 29.917C244.012 28.9092 243.032 28.4053 241.59 28.4053C240.611 28.4053 239.799 28.8812 239.155 29.833C238.511 30.7848 238.189 32.2616 238.189 34.2632C238.189 36.2368 238.511 37.6785 239.155 38.5884C239.813 39.4842 240.653 39.9321 241.674 39.9321Z" fill="#072AC8"/>
<rect y="13" width="19" height="20" rx="5" fill="#072AC8"/>
<rect x="23" y="13" width="19" height="20" rx="5" fill="#072AC8"/>
<rect y="36" width="19" height="20" rx="5" fill="#072AC8"/>
<path d="M41.3887 51.8272L27.1546 48.4615L33.7622 39.3462L41.3887 51.8272Z" fill="#6EB7F4"/>
</svg>
