<svg width="1200" height="630" viewBox="0 0 1200 630" fill="none" xmlns="http://www.w3.org/2000/svg">
<rect x="0.5" y="0.5" width="1199" height="629" fill="white"/>
<g clip-path="url(#clip0_72_244)">
<path d="M498.125 280.458H578.458V200.125H498.125V280.458ZM518.208 220.208H558.375V260.375H518.208V220.208Z" fill="#072AC8"/>
<path d="M498.125 380.875H578.458V300.542H498.125V380.875ZM518.208 320.625H558.375V360.792H518.208V320.625Z" fill="#072AC8"/>
<path d="M598.542 200.125V280.458H678.875V200.125H598.542ZM658.792 260.375H618.625V220.208H658.792V260.375Z" fill="#072AC8"/>
<path d="M678.875 360.792H658.792V380.875H678.875V360.792Z" fill="#072AC8"/>
<path d="M618.625 300.542H598.542V320.625H618.625V300.542Z" fill="#072AC8"/>
<path d="M638.708 320.625H618.625V340.708H638.708V320.625Z" fill="#072AC8"/>
<path d="M618.625 340.708H598.542V360.792H618.625V340.708Z" fill="#072AC8"/>
<path d="M638.708 360.792H618.625V380.875H638.708V360.792Z" fill="#072AC8"/>
<path d="M658.792 340.708H638.708V360.792H658.792V340.708Z" fill="#072AC8"/>
<path d="M658.792 300.542H638.708V320.625H658.792V300.542Z" fill="#072AC8"/>
<path d="M678.875 320.625H658.792V340.708H678.875V320.625Z" fill="#072AC8"/>
</g>
<rect width="1200" height="38" fill="#EFEFEF"/>
<rect x="17" y="11" width="81" height="16" rx="8" fill="#072AC8"/>
<circle cx="516.5" cy="19.5" r="9.5" fill="#D9D9D9"/>
<circle cx="588.5" cy="19.5" r="9.5" fill="#072AC8"/>
<circle cx="660.5" cy="19.5" r="9.5" fill="#D9D9D9"/>
<line x1="539" y1="20.5" x2="567" y2="20.5" stroke="#B9B9B9"/>
<line x1="611" y1="20.5" x2="639" y2="20.5" stroke="#B9B9B9"/>
<line x1="1092" y1="10.5" x2="1124" y2="10.5" stroke="#B7B7B7"/>
<line x1="1092" y1="18.5" x2="1124" y2="18.5" stroke="#B7B7B7"/>
<line x1="1092" y1="26.5" x2="1124" y2="26.5" stroke="#B7B7B7"/>
<path d="M353.15 427.467C352.107 427.467 351.182 427.672 350.373 428.082C349.576 428.48 348.902 429.061 348.352 429.822C347.812 430.584 347.402 431.504 347.121 432.582C346.84 433.66 346.699 434.873 346.699 436.221C346.699 438.037 346.922 439.59 347.367 440.879C347.824 442.156 348.527 443.135 349.477 443.814C350.426 444.482 351.65 444.816 353.15 444.816C354.193 444.816 355.236 444.699 356.279 444.465C357.334 444.23 358.477 443.896 359.707 443.463V448.033C358.57 448.502 357.451 448.836 356.35 449.035C355.248 449.246 354.012 449.352 352.641 449.352C349.992 449.352 347.812 448.807 346.102 447.717C344.402 446.615 343.143 445.08 342.322 443.111C341.502 441.131 341.092 438.822 341.092 436.186C341.092 434.24 341.355 432.459 341.883 430.842C342.41 429.225 343.184 427.824 344.203 426.641C345.223 425.457 346.482 424.543 347.982 423.898C349.482 423.254 351.205 422.932 353.15 422.932C354.428 422.932 355.705 423.096 356.982 423.424C358.271 423.74 359.502 424.18 360.674 424.742L358.916 429.172C357.955 428.715 356.988 428.316 356.016 427.977C355.043 427.637 354.088 427.467 353.15 427.467ZM375.738 428.979C376.008 428.979 376.318 428.996 376.67 429.031C377.033 429.055 377.326 429.09 377.549 429.137L377.145 434.164C376.969 434.105 376.717 434.064 376.389 434.041C376.072 434.006 375.797 433.988 375.562 433.988C374.871 433.988 374.197 434.076 373.541 434.252C372.896 434.428 372.316 434.715 371.801 435.113C371.285 435.5 370.875 436.016 370.57 436.66C370.277 437.293 370.131 438.072 370.131 438.998V449H364.77V429.348H368.83L369.621 432.652H369.885C370.271 431.984 370.752 431.375 371.326 430.824C371.912 430.262 372.574 429.816 373.312 429.488C374.062 429.148 374.871 428.979 375.738 428.979ZM389.221 428.979C391.037 428.979 392.602 429.33 393.914 430.033C395.227 430.725 396.24 431.732 396.955 433.057C397.67 434.381 398.027 435.998 398.027 437.908V440.51H385.354C385.412 442.021 385.863 443.211 386.707 444.078C387.562 444.934 388.746 445.361 390.258 445.361C391.512 445.361 392.66 445.232 393.703 444.975C394.746 444.717 395.818 444.33 396.92 443.814V447.963C395.947 448.443 394.928 448.795 393.861 449.018C392.807 449.24 391.523 449.352 390.012 449.352C388.043 449.352 386.297 448.988 384.773 448.262C383.262 447.535 382.072 446.428 381.205 444.939C380.35 443.451 379.922 441.576 379.922 439.314C379.922 437.018 380.309 435.107 381.082 433.584C381.867 432.049 382.957 430.9 384.352 430.139C385.746 429.365 387.369 428.979 389.221 428.979ZM389.256 432.793C388.213 432.793 387.346 433.127 386.654 433.795C385.975 434.463 385.582 435.512 385.477 436.941H393C392.988 436.145 392.842 435.436 392.561 434.814C392.291 434.193 391.881 433.701 391.33 433.338C390.791 432.975 390.1 432.793 389.256 432.793ZM410.438 428.943C413.074 428.943 415.096 429.518 416.502 430.666C417.908 431.814 418.611 433.561 418.611 435.904V449H414.867L413.83 446.328H413.689C413.127 447.031 412.553 447.605 411.967 448.051C411.381 448.496 410.707 448.824 409.945 449.035C409.184 449.246 408.258 449.352 407.168 449.352C406.008 449.352 404.965 449.129 404.039 448.684C403.125 448.238 402.404 447.559 401.877 446.645C401.35 445.719 401.086 444.547 401.086 443.129C401.086 441.043 401.818 439.508 403.283 438.523C404.748 437.527 406.945 436.977 409.875 436.871L413.285 436.766V435.904C413.285 434.873 413.016 434.117 412.477 433.637C411.938 433.156 411.188 432.916 410.227 432.916C409.277 432.916 408.346 433.051 407.432 433.32C406.518 433.59 405.604 433.93 404.689 434.34L402.914 430.719C403.957 430.168 405.123 429.734 406.412 429.418C407.713 429.102 409.055 428.943 410.438 428.943ZM413.285 439.895L411.211 439.965C409.477 440.012 408.27 440.322 407.59 440.896C406.922 441.471 406.588 442.227 406.588 443.164C406.588 443.984 406.828 444.57 407.309 444.922C407.789 445.262 408.416 445.432 409.189 445.432C410.338 445.432 411.305 445.092 412.09 444.412C412.887 443.732 413.285 442.766 413.285 441.512V439.895ZM432.428 445.08C433.014 445.08 433.582 445.021 434.133 444.904C434.695 444.787 435.252 444.641 435.803 444.465V448.455C435.229 448.713 434.514 448.924 433.658 449.088C432.814 449.264 431.889 449.352 430.881 449.352C429.709 449.352 428.654 449.164 427.717 448.789C426.791 448.402 426.059 447.74 425.52 446.803C424.992 445.854 424.729 444.535 424.729 442.848V433.373H422.162V431.105L425.115 429.312L426.662 425.164H430.09V429.348H435.592V433.373H430.09V442.848C430.09 443.598 430.301 444.16 430.723 444.535C431.156 444.898 431.725 445.08 432.428 445.08ZM447.896 428.979C449.713 428.979 451.277 429.33 452.59 430.033C453.902 430.725 454.916 431.732 455.631 433.057C456.346 434.381 456.703 435.998 456.703 437.908V440.51H444.029C444.088 442.021 444.539 443.211 445.383 444.078C446.238 444.934 447.422 445.361 448.934 445.361C450.188 445.361 451.336 445.232 452.379 444.975C453.422 444.717 454.494 444.33 455.596 443.814V447.963C454.623 448.443 453.604 448.795 452.537 449.018C451.482 449.24 450.199 449.352 448.688 449.352C446.719 449.352 444.973 448.988 443.449 448.262C441.938 447.535 440.748 446.428 439.881 444.939C439.025 443.451 438.598 441.576 438.598 439.314C438.598 437.018 438.984 435.107 439.758 433.584C440.543 432.049 441.633 430.9 443.027 430.139C444.422 429.365 446.045 428.979 447.896 428.979ZM447.932 432.793C446.889 432.793 446.021 433.127 445.33 433.795C444.65 434.463 444.258 435.512 444.152 436.941H451.676C451.664 436.145 451.518 435.436 451.236 434.814C450.967 434.193 450.557 433.701 450.006 433.338C449.467 432.975 448.775 432.793 447.932 432.793ZM494.162 436.115C494.162 438.025 493.934 439.777 493.477 441.371C493.031 442.953 492.34 444.324 491.402 445.484C490.465 446.645 489.275 447.553 487.834 448.209L494.021 455.117H487.043L482.332 449.352C482.25 449.352 482.18 449.352 482.121 449.352C482.062 449.352 481.998 449.352 481.928 449.352C479.83 449.352 478.014 449.041 476.479 448.42C474.943 447.787 473.672 446.885 472.664 445.713C471.668 444.541 470.924 443.141 470.432 441.512C469.939 439.883 469.693 438.072 469.693 436.08C469.693 433.42 470.127 431.105 470.994 429.137C471.873 427.156 473.221 425.621 475.037 424.531C476.854 423.441 479.162 422.896 481.963 422.896C484.752 422.896 487.043 423.441 488.836 424.531C490.641 425.621 491.977 427.156 492.844 429.137C493.723 431.117 494.162 433.443 494.162 436.115ZM475.406 436.115C475.406 437.908 475.629 439.455 476.074 440.756C476.531 442.045 477.24 443.041 478.201 443.744C479.162 444.436 480.404 444.781 481.928 444.781C483.475 444.781 484.729 444.436 485.689 443.744C486.65 443.041 487.348 442.045 487.781 440.756C488.227 439.455 488.449 437.908 488.449 436.115C488.449 433.42 487.945 431.299 486.938 429.752C485.93 428.205 484.271 427.432 481.963 427.432C480.428 427.432 479.174 427.783 478.201 428.486C477.24 429.178 476.531 430.174 476.074 431.475C475.629 432.764 475.406 434.311 475.406 436.115ZM506.977 423.301C509.309 423.301 511.23 423.582 512.742 424.145C514.266 424.707 515.396 425.557 516.135 426.693C516.873 427.83 517.242 429.266 517.242 431C517.242 432.172 517.02 433.197 516.574 434.076C516.129 434.955 515.543 435.699 514.816 436.309C514.09 436.918 513.305 437.416 512.461 437.803L520.02 449H513.973L507.838 439.139H504.938V449H499.488V423.301H506.977ZM506.59 427.766H504.938V434.709H506.695C508.5 434.709 509.789 434.41 510.562 433.812C511.348 433.203 511.74 432.312 511.74 431.141C511.74 429.922 511.318 429.055 510.475 428.539C509.643 428.023 508.348 427.766 506.59 427.766ZM543.521 427.467C542.479 427.467 541.553 427.672 540.744 428.082C539.947 428.48 539.273 429.061 538.723 429.822C538.184 430.584 537.773 431.504 537.492 432.582C537.211 433.66 537.07 434.873 537.07 436.221C537.07 438.037 537.293 439.59 537.738 440.879C538.195 442.156 538.898 443.135 539.848 443.814C540.797 444.482 542.021 444.816 543.521 444.816C544.564 444.816 545.607 444.699 546.65 444.465C547.705 444.23 548.848 443.896 550.078 443.463V448.033C548.941 448.502 547.822 448.836 546.721 449.035C545.619 449.246 544.383 449.352 543.012 449.352C540.363 449.352 538.184 448.807 536.473 447.717C534.773 446.615 533.514 445.08 532.693 443.111C531.873 441.131 531.463 438.822 531.463 436.186C531.463 434.24 531.727 432.459 532.254 430.842C532.781 429.225 533.555 427.824 534.574 426.641C535.594 425.457 536.854 424.543 538.354 423.898C539.854 423.254 541.576 422.932 543.521 422.932C544.799 422.932 546.076 423.096 547.354 423.424C548.643 423.74 549.873 424.18 551.045 424.742L549.287 429.172C548.326 428.715 547.359 428.316 546.387 427.977C545.414 427.637 544.459 427.467 543.521 427.467ZM573 439.139C573 440.779 572.777 442.232 572.332 443.498C571.898 444.764 571.26 445.836 570.416 446.715C569.584 447.582 568.576 448.238 567.393 448.684C566.221 449.129 564.896 449.352 563.42 449.352C562.037 449.352 560.766 449.129 559.605 448.684C558.457 448.238 557.455 447.582 556.6 446.715C555.756 445.836 555.1 444.764 554.631 443.498C554.174 442.232 553.945 440.779 553.945 439.139C553.945 436.959 554.332 435.113 555.105 433.602C555.879 432.09 556.98 430.941 558.41 430.156C559.84 429.371 561.545 428.979 563.525 428.979C565.365 428.979 566.994 429.371 568.412 430.156C569.842 430.941 570.961 432.09 571.77 433.602C572.59 435.113 573 436.959 573 439.139ZM559.412 439.139C559.412 440.428 559.553 441.512 559.834 442.391C560.115 443.27 560.555 443.932 561.152 444.377C561.75 444.822 562.529 445.045 563.49 445.045C564.439 445.045 565.207 444.822 565.793 444.377C566.391 443.932 566.824 443.27 567.094 442.391C567.375 441.512 567.516 440.428 567.516 439.139C567.516 437.838 567.375 436.76 567.094 435.904C566.824 435.037 566.391 434.387 565.793 433.953C565.195 433.52 564.416 433.303 563.455 433.303C562.037 433.303 561.006 433.789 560.361 434.762C559.729 435.734 559.412 437.193 559.412 439.139ZM583.652 449.352C581.461 449.352 579.674 448.496 578.291 446.785C576.92 445.062 576.234 442.537 576.234 439.209C576.234 435.846 576.932 433.303 578.326 431.58C579.721 429.846 581.543 428.979 583.793 428.979C584.73 428.979 585.557 429.107 586.271 429.365C586.986 429.623 587.602 429.969 588.117 430.402C588.645 430.836 589.09 431.322 589.453 431.861H589.629C589.559 431.486 589.471 430.936 589.365 430.209C589.271 429.471 589.225 428.715 589.225 427.941V421.648H594.604V449H590.49L589.453 446.451H589.225C588.885 446.99 588.457 447.482 587.941 447.928C587.438 448.361 586.834 448.707 586.131 448.965C585.428 449.223 584.602 449.352 583.652 449.352ZM585.533 445.08C586.998 445.08 588.029 444.646 588.627 443.779C589.236 442.9 589.559 441.582 589.594 439.824V439.244C589.594 437.334 589.301 435.875 588.715 434.867C588.129 433.848 587.039 433.338 585.445 433.338C584.262 433.338 583.336 433.848 582.668 434.867C582 435.887 581.666 437.357 581.666 439.279C581.666 441.201 582 442.648 582.668 443.621C583.348 444.594 584.303 445.08 585.533 445.08ZM608.314 428.979C610.131 428.979 611.695 429.33 613.008 430.033C614.32 430.725 615.334 431.732 616.049 433.057C616.764 434.381 617.121 435.998 617.121 437.908V440.51H604.447C604.506 442.021 604.957 443.211 605.801 444.078C606.656 444.934 607.84 445.361 609.352 445.361C610.605 445.361 611.754 445.232 612.797 444.975C613.84 444.717 614.912 444.33 616.014 443.814V447.963C615.041 448.443 614.021 448.795 612.955 449.018C611.9 449.24 610.617 449.352 609.105 449.352C607.137 449.352 605.391 448.988 603.867 448.262C602.355 447.535 601.166 446.428 600.299 444.939C599.443 443.451 599.016 441.576 599.016 439.314C599.016 437.018 599.402 435.107 600.176 433.584C600.961 432.049 602.051 430.9 603.445 430.139C604.84 429.365 606.463 428.979 608.314 428.979ZM608.35 432.793C607.307 432.793 606.439 433.127 605.748 433.795C605.068 434.463 604.676 435.512 604.57 436.941H612.094C612.082 436.145 611.936 435.436 611.654 434.814C611.385 434.193 610.975 433.701 610.424 433.338C609.885 432.975 609.193 432.793 608.35 432.793ZM636.615 449H631.254V423.301H645.984V427.766H636.615V434.393H645.334V438.84H636.615V449ZM668.449 439.139C668.449 440.779 668.227 442.232 667.781 443.498C667.348 444.764 666.709 445.836 665.865 446.715C665.033 447.582 664.025 448.238 662.842 448.684C661.67 449.129 660.346 449.352 658.869 449.352C657.486 449.352 656.215 449.129 655.055 448.684C653.906 448.238 652.904 447.582 652.049 446.715C651.205 445.836 650.549 444.764 650.08 443.498C649.623 442.232 649.395 440.779 649.395 439.139C649.395 436.959 649.781 435.113 650.555 433.602C651.328 432.09 652.43 430.941 653.859 430.156C655.289 429.371 656.994 428.979 658.975 428.979C660.814 428.979 662.443 429.371 663.861 430.156C665.291 430.941 666.41 432.09 667.219 433.602C668.039 435.113 668.449 436.959 668.449 439.139ZM654.861 439.139C654.861 440.428 655.002 441.512 655.283 442.391C655.564 443.27 656.004 443.932 656.602 444.377C657.199 444.822 657.979 445.045 658.939 445.045C659.889 445.045 660.656 444.822 661.242 444.377C661.84 443.932 662.273 443.27 662.543 442.391C662.824 441.512 662.965 440.428 662.965 439.139C662.965 437.838 662.824 436.76 662.543 435.904C662.273 435.037 661.84 434.387 661.242 433.953C660.645 433.52 659.865 433.303 658.904 433.303C657.486 433.303 656.455 433.789 655.811 434.762C655.178 435.734 654.861 437.193 654.861 439.139ZM683.848 428.979C684.117 428.979 684.428 428.996 684.779 429.031C685.143 429.055 685.436 429.09 685.658 429.137L685.254 434.164C685.078 434.105 684.826 434.064 684.498 434.041C684.182 434.006 683.906 433.988 683.672 433.988C682.98 433.988 682.307 434.076 681.65 434.252C681.006 434.428 680.426 434.715 679.91 435.113C679.395 435.5 678.984 436.016 678.68 436.66C678.387 437.293 678.24 438.072 678.24 438.998V449H672.879V429.348H676.939L677.73 432.652H677.994C678.381 431.984 678.861 431.375 679.436 430.824C680.021 430.262 680.684 429.816 681.422 429.488C682.172 429.148 682.98 428.979 683.848 428.979ZM714.732 449L712.869 442.883H703.5L701.637 449H695.766L704.836 423.195H711.498L720.604 449H714.732ZM711.568 438.312L709.705 432.336C709.588 431.938 709.43 431.428 709.23 430.807C709.043 430.174 708.85 429.535 708.65 428.891C708.463 428.234 708.311 427.666 708.193 427.186C708.076 427.666 707.912 428.264 707.701 428.979C707.502 429.682 707.309 430.35 707.121 430.982C706.934 431.615 706.799 432.066 706.717 432.336L704.871 438.312H711.568ZM734.596 428.979C736.693 428.979 738.381 429.553 739.658 430.701C740.936 431.838 741.574 433.666 741.574 436.186V449H736.213V437.521C736.213 436.115 735.955 435.055 735.439 434.34C734.936 433.625 734.139 433.268 733.049 433.268C731.408 433.268 730.289 433.824 729.691 434.938C729.094 436.051 728.795 437.656 728.795 439.754V449H723.434V429.348H727.529L728.25 431.861H728.549C728.971 431.182 729.492 430.631 730.113 430.209C730.746 429.787 731.443 429.477 732.205 429.277C732.979 429.078 733.775 428.979 734.596 428.979ZM744.281 429.348H750.152L753.861 440.404C753.979 440.756 754.078 441.113 754.16 441.477C754.242 441.84 754.312 442.215 754.371 442.602C754.43 442.988 754.477 443.393 754.512 443.814H754.617C754.688 443.182 754.781 442.59 754.898 442.039C755.027 441.488 755.186 440.943 755.373 440.404L759.012 429.348H764.76L756.445 451.514C755.941 452.873 755.285 454.004 754.477 454.906C753.668 455.82 752.736 456.506 751.682 456.963C750.639 457.42 749.49 457.648 748.236 457.648C747.627 457.648 747.1 457.613 746.654 457.543C746.209 457.484 745.828 457.42 745.512 457.35V453.096C745.758 453.154 746.068 453.207 746.443 453.254C746.818 453.301 747.211 453.324 747.621 453.324C748.371 453.324 749.016 453.166 749.555 452.85C750.094 452.533 750.545 452.105 750.908 451.566C751.271 451.039 751.559 450.459 751.77 449.826L752.086 448.859L744.281 429.348ZM775.869 445.08C776.455 445.08 777.023 445.021 777.574 444.904C778.137 444.787 778.693 444.641 779.244 444.465V448.455C778.67 448.713 777.955 448.924 777.1 449.088C776.256 449.264 775.33 449.352 774.322 449.352C773.15 449.352 772.096 449.164 771.158 448.789C770.232 448.402 769.5 447.74 768.961 446.803C768.434 445.854 768.17 444.535 768.17 442.848V433.373H765.604V431.105L768.557 429.312L770.104 425.164H773.531V429.348H779.033V433.373H773.531V442.848C773.531 443.598 773.742 444.16 774.164 444.535C774.598 444.898 775.166 445.08 775.869 445.08ZM788.596 421.648V427.221C788.596 428.193 788.561 429.119 788.49 429.998C788.432 430.877 788.385 431.498 788.35 431.861H788.631C789.053 431.182 789.551 430.631 790.125 430.209C790.711 429.787 791.355 429.477 792.059 429.277C792.762 429.078 793.518 428.979 794.326 428.979C795.744 428.979 796.98 429.23 798.035 429.734C799.09 430.227 799.91 431.006 800.496 432.072C801.082 433.127 801.375 434.498 801.375 436.186V449H796.014V437.521C796.014 436.115 795.756 435.055 795.24 434.34C794.725 433.625 793.928 433.268 792.85 433.268C791.771 433.268 790.922 433.52 790.301 434.023C789.68 434.516 789.24 435.248 788.982 436.221C788.725 437.182 788.596 438.359 788.596 439.754V449H783.234V421.648H788.596ZM812.256 429.348V449H806.895V429.348H812.256ZM809.584 421.648C810.381 421.648 811.066 421.836 811.641 422.211C812.215 422.574 812.502 423.26 812.502 424.268C812.502 425.264 812.215 425.955 811.641 426.342C811.066 426.717 810.381 426.904 809.584 426.904C808.775 426.904 808.084 426.717 807.51 426.342C806.947 425.955 806.666 425.264 806.666 424.268C806.666 423.26 806.947 422.574 807.51 422.211C808.084 421.836 808.775 421.648 809.584 421.648ZM829.061 428.979C831.158 428.979 832.846 429.553 834.123 430.701C835.4 431.838 836.039 433.666 836.039 436.186V449H830.678V437.521C830.678 436.115 830.42 435.055 829.904 434.34C829.4 433.625 828.604 433.268 827.514 433.268C825.873 433.268 824.754 433.824 824.156 434.938C823.559 436.051 823.26 437.656 823.26 439.754V449H817.898V429.348H821.994L822.715 431.861H823.014C823.436 431.182 823.957 430.631 824.578 430.209C825.211 429.787 825.908 429.477 826.67 429.277C827.443 429.078 828.24 428.979 829.061 428.979ZM847.307 457.648C844.564 457.648 842.467 457.168 841.014 456.207C839.572 455.258 838.852 453.922 838.852 452.199C838.852 451.016 839.221 450.025 839.959 449.229C840.697 448.432 841.781 447.863 843.211 447.523C842.66 447.289 842.18 446.908 841.77 446.381C841.359 445.842 841.154 445.273 841.154 444.676C841.154 443.926 841.371 443.305 841.805 442.812C842.238 442.309 842.865 441.816 843.686 441.336C842.654 440.891 841.834 440.176 841.225 439.191C840.627 438.207 840.328 437.047 840.328 435.711C840.328 434.281 840.639 433.068 841.26 432.072C841.893 431.064 842.807 430.297 844.002 429.77C845.209 429.242 846.674 428.979 848.396 428.979C848.76 428.979 849.182 429.002 849.662 429.049C850.143 429.096 850.582 429.148 850.98 429.207C851.391 429.266 851.666 429.312 851.807 429.348H858.662V432.072L855.586 432.863C855.867 433.297 856.078 433.76 856.219 434.252C856.359 434.744 856.43 435.266 856.43 435.816C856.43 437.926 855.691 439.572 854.215 440.756C852.75 441.928 850.711 442.514 848.098 442.514C847.477 442.479 846.891 442.432 846.34 442.373C846.07 442.584 845.865 442.807 845.725 443.041C845.584 443.275 845.514 443.521 845.514 443.779C845.514 444.037 845.619 444.254 845.83 444.43C846.053 444.594 846.381 444.723 846.814 444.816C847.26 444.898 847.811 444.939 848.467 444.939H851.807C853.963 444.939 855.604 445.402 856.729 446.328C857.865 447.254 858.434 448.613 858.434 450.406C858.434 452.703 857.473 454.484 855.551 455.75C853.641 457.016 850.893 457.648 847.307 457.648ZM847.535 454.15C848.812 454.15 849.908 454.027 850.822 453.781C851.748 453.547 852.457 453.207 852.949 452.762C853.441 452.328 853.688 451.807 853.688 451.197C853.688 450.705 853.541 450.312 853.248 450.02C852.967 449.738 852.533 449.539 851.947 449.422C851.373 449.305 850.635 449.246 849.732 449.246H846.955C846.299 449.246 845.707 449.352 845.18 449.562C844.664 449.773 844.254 450.066 843.949 450.441C843.645 450.828 843.492 451.273 843.492 451.777C843.492 452.516 843.844 453.096 844.547 453.518C845.262 453.939 846.258 454.15 847.535 454.15ZM848.396 439.244C849.404 439.244 850.143 438.934 850.611 438.312C851.08 437.691 851.314 436.848 851.314 435.781C851.314 434.598 851.068 433.713 850.576 433.127C850.096 432.529 849.369 432.23 848.396 432.23C847.412 432.23 846.674 432.529 846.182 433.127C845.689 433.713 845.443 434.598 845.443 435.781C845.443 436.848 845.684 437.691 846.164 438.312C846.656 438.934 847.4 439.244 848.396 439.244Z" fill="#072AC8"/>
<rect x="0.5" y="0.5" width="1199" height="629" stroke="#DFDADA"/>
<defs>
<clipPath id="clip0_72_244">
<rect width="241" height="241" fill="white" transform="translate(468 170)"/>
</clipPath>
</defs>
</svg>
