<svg width="186" height="186" viewBox="0 0 186 186" fill="none" xmlns="http://www.w3.org/2000/svg">
<rect width="185.314" height="185.263" rx="19" fill="#FCF300"/>
<rect x="13.0353" y="16.7289" width="159.244" height="151.805" rx="10.5" fill="white" stroke="#DCDCDC" stroke-width="5"/>
<path d="M28.99 85.5592H85.583V28.982H28.99V85.5592ZM43.1383 43.1263H71.4348V71.4149H43.1383V43.1263Z" fill="#072AC8"/>
<path d="M28.99 156.281H85.583V99.7035H28.99V156.281ZM43.1383 113.848H71.4348V142.136H43.1383V113.848Z" fill="#072AC8"/>
<path d="M99.7313 28.982V85.5592H156.324V28.982H99.7313ZM142.176 71.4149H113.88V43.1263H142.176V71.4149Z" fill="#072AC8"/>
<path d="M156.324 142.136H142.176V156.281H156.324V142.136Z" fill="#072AC8"/>
<path d="M113.88 99.7035H99.7313V113.848H113.88V99.7035Z" fill="#072AC8"/>
<path d="M128.028 113.848H113.88V127.992H128.028V113.848Z" fill="#072AC8"/>
<path d="M113.88 127.992H99.7313V142.136H113.88V127.992Z" fill="#072AC8"/>
<path d="M128.028 142.136H113.88V156.281H128.028V142.136Z" fill="#072AC8"/>
<path d="M142.176 127.992H128.028V142.136H142.176V127.992Z" fill="#072AC8"/>
<path d="M142.176 99.7035H128.028V113.848H142.176V99.7035Z" fill="#072AC8"/>
<path d="M156.324 113.848H142.176V127.992H156.324V113.848Z" fill="#072AC8"/>
</svg>
