<svg width="598" height="561" viewBox="0 0 598 561" fill="none" xmlns="http://www.w3.org/2000/svg">
<rect x="4" y="196.963" width="359.893" height="360.037" rx="23" fill="#FCF300" stroke="#072AC8" stroke-width="8"/>
<rect x="35" y="235.002" width="297.893" height="283.959" rx="10.5" fill="white" stroke="#DCDCDC" stroke-width="5"/>
<g clip-path="url(#clip0_77_439)">
<path d="M63.0491 363.543H170.513V256.035H63.0491V363.543ZM89.9152 282.912H143.647V336.666H89.9152V282.912Z" fill="#072AC8"/>
<path d="M63.0491 497.928H170.513V390.42H63.0491V497.928ZM89.9152 417.297H143.647V471.051H89.9152V417.297Z" fill="#072AC8"/>
<path d="M197.38 256.035V363.543H304.844V256.035H197.38ZM277.978 336.666H224.246V282.912H277.978V336.666Z" fill="#072AC8"/>
<path d="M304.844 471.051H277.978V497.928H304.844V471.051Z" fill="#072AC8"/>
<path d="M224.246 390.42H197.38V417.297H224.246V390.42Z" fill="#072AC8"/>
<path d="M251.112 417.297H224.246V444.174H251.112V417.297Z" fill="#072AC8"/>
<path d="M224.246 444.174H197.38V471.051H224.246V444.174Z" fill="#072AC8"/>
<path d="M251.112 471.051H224.246V497.928H251.112V471.051Z" fill="#072AC8"/>
<path d="M277.978 444.174H251.112V471.051H277.978V444.174Z" fill="#072AC8"/>
<path d="M277.978 390.42H251.112V417.297H277.978V390.42Z" fill="#072AC8"/>
<path d="M304.844 417.297H277.978V444.174H304.844V417.297Z" fill="#072AC8"/>
</g>
<path d="M497.325 226.611C504.001 226.611 510.402 229.263 515.122 233.985C519.842 238.707 522.494 245.112 522.494 251.789C522.494 245.112 525.146 238.707 529.866 233.985C534.586 229.263 540.988 226.611 547.663 226.611C540.988 226.611 534.586 223.958 529.866 219.236C525.146 214.514 522.494 208.109 522.494 201.432C522.494 208.109 519.842 214.514 515.122 219.236C510.402 223.958 504.001 226.611 497.325 226.611ZM497.325 75.5369C504.001 75.5369 510.402 78.1896 515.122 82.9116C519.842 87.6336 522.494 94.0379 522.494 100.716C522.494 94.0379 525.146 87.6336 529.866 82.9116C534.586 78.1896 540.988 75.5369 547.663 75.5369C540.988 75.5369 534.586 72.8841 529.866 68.1621C525.146 63.4401 522.494 57.0358 522.494 50.3579C522.494 57.0358 519.842 63.4401 515.122 68.1621C510.402 72.8841 504.001 75.5369 497.325 75.5369ZM409.235 226.611C409.235 206.577 417.19 187.364 431.35 173.198C445.51 159.032 464.716 151.074 484.741 151.074C464.716 151.074 445.51 143.115 431.35 128.949C417.19 114.784 409.235 95.5705 409.235 75.5369C409.235 95.5705 401.28 114.784 387.12 128.949C372.96 143.115 353.755 151.074 333.729 151.074C353.755 151.074 372.96 159.032 387.12 173.198C401.28 187.364 409.235 206.577 409.235 226.611Z" stroke="#072AC8" stroke-width="12" stroke-linecap="round" stroke-linejoin="round"/>
<defs>
<clipPath id="clip0_77_439">
<rect x="22.75" y="215.719" width="322.393" height="322.525" rx="59" fill="white"/>
</clipPath>
</defs>
</svg>
