<svg width="241" height="241" viewBox="0 0 241 241" fill="none" xmlns="http://www.w3.org/2000/svg">
<g clip-path="url(#clip0_14_253)">
<path d="M30.125 110.458H110.458V30.125H30.125V110.458ZM50.2083 50.2083H90.375V90.375H50.2083V50.2083Z" fill="#072AC8"/>
<path d="M30.125 210.875H110.458V130.542H30.125V210.875ZM50.2083 150.625H90.375V190.792H50.2083V150.625Z" fill="#072AC8"/>
<path d="M130.542 30.125V110.458H210.875V30.125H130.542ZM190.792 90.375H150.625V50.2083H190.792V90.375Z" fill="#072AC8"/>
<path d="M210.875 190.792H190.792V210.875H210.875V190.792Z" fill="#072AC8"/>
<path d="M150.625 130.542H130.542V150.625H150.625V130.542Z" fill="#072AC8"/>
<path d="M170.708 150.625H150.625V170.708H170.708V150.625Z" fill="#072AC8"/>
<path d="M150.625 170.708H130.542V190.792H150.625V170.708Z" fill="#072AC8"/>
<path d="M170.708 190.792H150.625V210.875H170.708V190.792Z" fill="#072AC8"/>
<path d="M190.792 170.708H170.708V190.792H190.792V170.708Z" fill="#072AC8"/>
<path d="M190.792 130.542H170.708V150.625H190.792V130.542Z" fill="#072AC8"/>
<path d="M210.875 150.625H190.792V170.708H210.875V150.625Z" fill="#072AC8"/>
</g>
<defs>
<clipPath id="clip0_14_253">
<rect width="241" height="241" fill="white"/>
</clipPath>
</defs>
</svg>
